# xmcd
#
# Track frame offsets:
# 150
# 14875
# 32450
# 63937
# 79837
# 99912
# 123350
# 143112
# 157387
# 171075
# 199425
#
# Disc length: 2996 seconds
#
#
# Revision: 0
# Processed by: cddbd v1.4PL0 Copyright (c) Steve Scherf et al.
# Submitted via: FreeRIP 2.00 
#
DISCID=970bb20b
DTITLE=Buddy Guy - Slippin' In
DYEAR=1900
DGENRE=Blues
TTITLE0=I Smell Trouble
TTITLE1=PLease Don't Drive Me Away
TTITLE2=7-11
TTITLE3=Shame, Shame, Shame
TTITLE4=Love Her With A Feeling
TTITLE5=Little Dab-A-Doo
TTITLE6=Someone Else Is Steppin' In (Slippin' Out, Slippin' In)
TTITLE7=Trouble Blues
TTITLE8=Man Of Many Words
TTITLE9=Don't Tell Me About The Blues
TTITLE10=Cities Need Help
EXTD=
EXTT0=
EXTT1=
EXTT2=
EXTT3=
EXTT4=
EXTT5=
EXTT6=
EXTT7=
EXTT8=
EXTT9=
EXTT10=
PLAYORDER=
